<svg id="visual" viewBox="0 0 960 540" width="960" height="540" xmlns="http://www.w3.org/2000/svg" xmlns:xlink="http://www.w3.org/1999/xlink" version="1.1"><path d="M0 360L60 425L120 384L180 406L240 390L300 397L360 368L420 371L480 373L540 420L600 381L660 346L720 407L780 384L840 353L900 354L960 372L960 541L900 541L840 541L780 541L720 541L660 541L600 541L540 541L480 541L420 541L360 541L300 541L240 541L180 541L120 541L60 541L0 541Z" fill="#ff7403"></path><path d="M0 363L60 388L120 365L180 426L240 371L300 418L360 366L420 408L480 370L540 437L600 403L660 419L720 430L780 365L840 405L900 418L960 369L960 541L900 541L840 541L780 541L720 541L660 541L600 541L540 541L480 541L420 541L360 541L300 541L240 541L180 541L120 541L60 541L0 541Z" fill="#f56d13"></path><path d="M0 406L60 424L120 395L180 421L240 392L300 393L360 388L420 417L480 413L540 444L600 378L660 439L720 431L780 434L840 380L900 426L960 431L960 541L900 541L840 541L780 541L720 541L660 541L600 541L540 541L480 541L420 541L360 541L300 541L240 541L180 541L120 541L60 541L0 541Z" fill="#ea651d"></path><path d="M0 395L60 390L120 399L180 427L240 435L300 426L360 445L420 444L480 399L540 415L600 458L660 419L720 455L780 397L840 443L900 398L960 402L960 541L900 541L840 541L780 541L720 541L660 541L600 541L540 541L480 541L420 541L360 541L300 541L240 541L180 541L120 541L60 541L0 541Z" fill="#df5f23"></path><path d="M0 426L60 431L120 424L180 458L240 421L300 431L360 465L420 406L480 415L540 462L600 409L660 440L720 461L780 411L840 419L900 459L960 443L960 541L900 541L840 541L780 541L720 541L660 541L600 541L540 541L480 541L420 541L360 541L300 541L240 541L180 541L120 541L60 541L0 541Z" fill="#d45927"></path><path d="M0 451L60 453L120 430L180 446L240 426L300 429L360 455L420 470L480 440L540 429L600 460L660 449L720 450L780 459L840 446L900 465L960 473L960 541L900 541L840 541L780 541L720 541L660 541L600 541L540 541L480 541L420 541L360 541L300 541L240 541L180 541L120 541L60 541L0 541Z" fill="#c9532b"></path><path d="M0 452L60 475L120 484L180 444L240 447L300 440L360 467L420 463L480 465L540 475L600 462L660 457L720 485L780 485L840 476L900 482L960 447L960 541L900 541L840 541L780 541L720 541L660 541L600 541L540 541L480 541L420 541L360 541L300 541L240 541L180 541L120 541L60 541L0 541Z" fill="#bd4d2d"></path><path d="M0 451L60 490L120 450L180 479L240 451L300 494L360 451L420 486L480 451L540 450L600 485L660 485L720 458L780 453L840 468L900 491L960 481L960 541L900 541L840 541L780 541L720 541L660 541L600 541L540 541L480 541L420 541L360 541L300 541L240 541L180 541L120 541L60 541L0 541Z" fill="#b1492f"></path><path d="M0 480L60 504L120 496L180 470L240 491L300 474L360 501L420 499L480 498L540 475L600 490L660 485L720 478L780 504L840 501L900 485L960 471L960 541L900 541L840 541L780 541L720 541L660 541L600 541L540 541L480 541L420 541L360 541L300 541L240 541L180 541L120 541L60 541L0 541Z" fill="#a54430"></path><path d="M0 501L60 486L120 499L180 499L240 492L300 504L360 484L420 505L480 484L540 505L600 503L660 489L720 499L780 491L840 501L900 489L960 512L960 541L900 541L840 541L780 541L720 541L660 541L600 541L540 541L480 541L420 541L360 541L300 541L240 541L180 541L120 541L60 541L0 541Z" fill="#994030"></path><path d="M0 496L60 500L120 524L180 498L240 519L300 523L360 517L420 510L480 515L540 521L600 502L660 510L720 507L780 505L840 518L900 496L960 509L960 541L900 541L840 541L780 541L720 541L660 541L600 541L540 541L480 541L420 541L360 541L300 541L240 541L180 541L120 541L60 541L0 541Z" fill="#fff"></path><path d="M0 522L60 531L120 529L180 526L240 517L300 528L360 532L420 512L480 530L540 517L600 529L660 529L720 533L780 516L840 514L900 523L960 513L960 541L900 541L840 541L780 541L720 541L660 541L600 541L540 541L480 541L420 541L360 541L300 541L240 541L180 541L120 541L60 541L0 541Z" fill="#fff"></path></svg>