<svg width="485.20624999999995px" height="154.4px" xmlns="http://www.w3.org/2000/svg" viewBox="7.396875000000023 -2.200000000000003 485.20624999999995 154.4" style="background: rgba(0, 0, 0, 0);" preserveAspectRatio="xMidYMid"><defs><filter id="editing-neon" x="-100%" y="-100%" width="300%" height="300%"><feFlood flood-color="#762bff" result="flood"></feFlood><feComposite operator="in" in="flood" in2="SourceAlpha" result="color"></feComposite><feFlood flood-color="#762bff" result="flood2"></feFlood><feComposite operator="in" in="flood2" in2="SourceAlpha" result="color2"></feComposite><feMorphology operator="dilate" radius="2" in="color" result="dilate"></feMorphology><feGaussianBlur stdDeviation="6" in="color" result="blur1"></feGaussianBlur><feGaussianBlur stdDeviation="2.5" in="color" result="blur2"></feGaussianBlur><feGaussianBlur stdDeviation="1" in="SourceAlpha" result="blur3"></feGaussianBlur><feGaussianBlur stdDeviation="6" in="dilate" result="blur4"></feGaussianBlur><feConvolveMatrix in="color2" result="conv" order="3,3" divisor="1" kernelMatrix="1 1 1  1 1 1  1 1 1"></feConvolveMatrix><feMerge><feMergeNode in="blur1"></feMergeNode><feMergeNode in="blur2"></feMergeNode><feMergeNode in="blur4"></feMergeNode><feMergeNode in="blur3"></feMergeNode><feMergeNode in="blur3"></feMergeNode><feMergeNode in="blur3"></feMergeNode><feMergeNode in="blur3"></feMergeNode><feMergeNode in="conv"></feMergeNode><feMergeNode in="SourceGraphic"></feMergeNode></feMerge></filter></defs><g filter="url(#editing-neon)"><g transform="translate(81.00381284952164, 104.79500198364258)"><path d="M34.60-39.27L34.60-39.27L34.60-39.27Q35.87-41.82 35.87-44.20L35.87-44.20L35.87-44.20Q35.87-46.58 35.62-47.90L35.62-47.90L35.62-47.90Q35.36-49.22 34.77-50.24L34.77-50.24L34.77-50.24Q33.49-52.45 30.94-52.45L30.94-52.45L30.94-52.45Q27.80-52.45 25.25-50.15L25.25-50.15L25.25-50.15Q22.53-47.77 22.53-44.03L22.53-44.03L22.53-44.03Q22.53-41.65 24.18-39.82L24.18-39.82L24.18-39.82Q25.84-38.00 28.39-36.30L28.39-36.30L28.39-36.30Q30.94-34.60 33.83-32.90L33.83-32.90L33.83-32.90Q36.72-31.20 39.27-29.16L39.27-29.16L39.27-29.16Q45.14-24.48 45.14-18.19L45.14-18.19L45.14-18.19Q45.14-13.94 42.88-10.33L42.88-10.33L42.88-10.33Q40.63-6.72 36.89-4.08L36.89-4.08L36.89-4.08Q28.73 1.70 17.94 1.70L17.94 1.70L17.94 1.70Q9.18 1.70 4.68-1.15L4.68-1.15L4.68-1.15Q0.17-4.00 0.17-8.33L0.17-8.33L0.17-8.33Q0.17-16.07 6.21-18.02L6.21-18.02L6.21-18.02Q7.91-18.62 10.50-18.62L10.50-18.62L10.50-18.62Q13.09-18.62 16.07-17.51L16.07-17.51L16.07-17.51Q14.71-14.03 14.71-10.88L14.71-10.88L14.71-10.88Q14.71-4.08 19.55-4.08L19.55-4.08L19.55-4.08Q22.70-4.08 25.29-6.38L25.29-6.38L25.29-6.38Q27.88-8.67 27.88-11.26L27.88-11.26L27.88-11.26Q27.88-13.86 26.22-15.73L26.22-15.73L26.22-15.73Q24.57-17.60 22.10-19.08L22.10-19.08L22.10-19.08Q19.64-20.57 16.79-22.02L16.79-22.02L16.79-22.02Q13.94-23.46 11.48-25.50L11.48-25.50L11.48-25.50Q5.70-30.18 5.70-37.66L5.70-37.66L5.70-37.66Q5.70-42.50 8.08-46.28L8.08-46.28L8.08-46.28Q10.46-50.07 14.28-52.62L14.28-52.62L14.28-52.62Q21.93-57.80 31.32-57.80L31.32-57.80L31.32-57.80Q40.72-57.80 45.26-55.00L45.26-55.00L45.26-55.00Q49.81-52.19 49.81-47.43L49.81-47.43L49.81-47.43Q49.81-43.27 46.58-40.63L46.58-40.63L46.58-40.63Q43.78-38.42 40.38-38.42L40.38-38.42L40.38-38.42Q36.98-38.42 34.60-39.27ZM52.87-20.74L52.87-20.74L52.87-20.74Q52.87-36.80 61.20-46.92L61.20-46.92L61.20-46.92Q70.04-57.89 85.43-57.89L85.43-57.89L85.43-57.89Q96.56-57.89 102.17-52.49L102.17-52.49L102.17-52.49Q107.78-47.09 107.78-35.70L107.78-35.70L107.78-35.70Q107.78-18.36 98.94-8.25L98.94-8.25L98.94-8.25Q90.19 1.70 75.48 1.70L75.48 1.70L75.48 1.70Q64.01 1.70 58.44-4.04L58.44-4.04L58.44-4.04Q52.87-9.78 52.87-20.74ZM75.23-38.34L75.23-38.34L75.23-38.34Q71.40-23.04 71.40-10.97L71.40-10.97L71.40-10.97Q71.40-8.08 72.38-6.21L72.38-6.21L72.38-6.21Q73.36-4.33 75.95-4.33L75.95-4.33L75.95-4.33Q78.54-4.33 80.16-5.57L80.16-5.57L80.16-5.57Q81.77-6.80 83.05-9.61L83.05-9.61L83.05-9.61Q85.09-14.20 87.00-23.93L87.00-23.93L87.00-23.93Q88.91-33.66 89.08-37.70L89.08-37.70L89.08-37.70Q89.25-41.74 89.25-44.80L89.25-44.80L89.25-44.80Q89.25-47.86 88.32-49.81L88.32-49.81L88.32-49.81Q87.38-51.77 84.87-51.77L84.87-51.77L84.87-51.77Q82.37-51.77 80.67-50.24L80.67-50.24L80.67-50.24Q77.52-47.35 75.23-38.34ZM150.62-45.05L150.62-45.05L150.62-45.05Q143.74-45.05 138.72-47.35L138.72-47.35L136-33.58L152.41-33.58L152.41-33.58Q152.41-29.07 150.15-26.22L150.15-26.22L150.15-26.22Q147.90-23.38 143.82-23.38L143.82-23.38L143.82-23.38Q139.40-23.38 135.32-24.99L135.32-24.99L135.32-24.99Q134.47-25.33 134.38-25.42L134.38-25.42L129.54 0L111.01 0L121.81-56.10L159.72-56.10L159.72-56.10Q159.72-50.92 157.29-47.98L157.29-47.98L157.29-47.98Q154.87-45.05 150.62-45.05ZM201.96-17.60L201.96-17.60L201.96-17.60Q204.17-15.98 204.17-12.54L204.17-12.54L204.17-12.54Q204.17-9.10 202.68-6.67L202.68-6.67L202.68-6.67Q201.20-4.25 198.31-2.38L198.31-2.38L198.31-2.38Q192.10 1.62 181.26 1.62L181.26 1.62L181.26 1.62Q170.43 1.62 164.52-4.04L164.52-4.04L164.52-4.04Q158.61-9.69 158.61-19.72L158.61-19.72L158.61-19.72Q158.61-33.91 166.01-44.71L166.01-44.71L166.01-44.71Q171.62-52.70 181.65-56.10L181.65-56.10L181.65-56.10Q186.83-57.80 191.93-57.80L191.93-57.80L191.93-57.80Q197.03-57.80 200.18-57.12L200.18-57.12L200.18-57.12Q203.32-56.44 205.70-55.08L205.70-55.08L205.70-55.08Q210.89-52.11 210.89-47.35L210.89-47.35L210.89-47.35Q210.89-43.01 206.81-39.78L206.81-39.78L206.81-39.78Q203.06-36.89 200.01-36.89L200.01-36.89L200.01-36.89Q196.95-36.89 195.67-37.32L195.67-37.32L195.67-37.32Q196.01-40.38 196.01-42.37L196.01-42.37L196.01-42.37Q196.01-44.37 195.93-45.82L195.93-45.82L195.93-45.82Q195.84-47.26 195.42-48.62L195.42-48.62L195.42-48.62Q194.56-51.77 191.97-51.77L191.97-51.77L191.97-51.77Q189.38-51.77 186.79-49.34L186.79-49.34L186.79-49.34Q184.20-46.92 181.99-42.84L181.99-42.84L181.99-42.84Q176.97-33.58 176.97-22.61L176.97-22.61L176.97-22.61Q176.97-17.34 179.95-14.32L179.95-14.32L179.95-14.32Q182.92-11.31 189.30-11.31L189.30-11.31L189.30-11.31Q194.06-11.31 198.56-14.45L198.56-14.45L198.56-14.45Q200.52-15.81 201.96-17.60ZM247.52-13.09L247.52-13.09L247.52-13.09Q249.14-11.05 249.14-7.74L249.14-7.74L249.14-7.74Q249.14-3.15 245.74-0.72L245.74-0.72L245.74-0.72Q242.34 1.70 236.98 1.70L236.98 1.70L236.98 1.70Q233.92 1.70 229.25 1.02L229.25 1.02L229.25 1.02Q220.07-0.43 217.26-0.43L217.26-0.43L217.26-0.43Q214.46-0.43 213.35-0.30L213.35-0.30L213.35-0.30Q212.25-0.17 210.46 0L210.46 0L220.92-56.10L257.55-56.10L257.55-56.10Q257.55-50.92 255.04-48.20L255.04-48.20L255.04-48.20Q252.54-45.48 247.61-45.48L247.61-45.48L247.61-45.48Q242.68-45.48 237.66-47.77L237.66-47.77L235.03-32.90L250.16-32.90L250.16-32.90Q250.16-28.39 247.95-25.88L247.95-25.88L247.95-25.88Q245.74-23.38 242.04-23.38L242.04-23.38L242.04-23.38Q238.34-23.38 236.05-24.23L236.05-24.23L236.05-24.23Q233.75-25.08 233.50-25.33L233.50-25.33L230.44-9.27L230.44-9.27Q232.48-9.01 236.30-9.01L236.30-9.01L236.30-9.01Q242.85-9.01 247.52-13.09ZM292.49-13.09L292.49-13.09L292.49-13.09Q294.10-11.05 294.10-7.10L294.10-7.10L294.10-7.10Q294.10-3.15 291.08-0.72L291.08-0.72L291.08-0.72Q288.07 1.70 282.80 1.70L282.80 1.70L282.80 1.70Q279.74 1.70 274.98 1.02L274.98 1.02L274.98 1.02Q265.63-0.43 262.95-0.43L262.95-0.43L262.95-0.43Q260.27-0.43 259.17-0.30L259.17-0.30L259.17-0.30Q258.06-0.17 256.28 0L256.28 0L266.56-56.10L285.18-56.10L276.68-9.35L276.68-9.35Q277.78-9.18 278.80-9.18L278.80-9.18L280.93-9.18L280.93-9.18Q288.07-9.18 292.49-13.09ZM335.33-13.09L335.33-13.09L335.33-13.09Q336.94-11.05 336.94-7.10L336.94-7.10L336.94-7.10Q336.94-3.15 333.92-0.72L333.92-0.72L333.92-0.72Q330.91 1.70 325.64 1.70L325.64 1.70L325.64 1.70Q322.58 1.70 317.81 1.02L317.81 1.02L317.81 1.02Q308.47-0.43 305.79-0.43L305.79-0.43L305.79-0.43Q303.11-0.43 302.00-0.30L302.00-0.30L302.00-0.30Q300.90-0.17 299.12 0L299.12 0L309.40-56.10L328.02-56.10L319.52-9.35L319.52-9.35Q320.62-9.18 321.64-9.18L321.64-9.18L323.77-9.18L323.77-9.18Q330.91-9.18 335.33-13.09Z" fill="none" stroke="#ffc3ff" stroke-width="1.2"></path></g></g><style>text {
  font-size: 64px;
  font-family: Arial Black;
  dominant-baseline: central;
  text-anchor: middle;
}</style></svg>