<svg width="994.953" height="112.802" viewBox="0 0 994.953 112.802" xmlns="http://www.w3.org/2000/svg">
	<g id="svgGroup" stroke-linecap="round" fill-rule="evenodd" font-size="9pt" stroke="#000" stroke-width="0.25mm" fill="none" style="stroke:#000;stroke-width:0.25mm;fill:none">
		<path d="M 79.801 12.75 L 74.551 24.6 Q 68.251 21.15 61.726 18.9 A 41.041 41.041 0 0 0 52.577 16.919 A 51.337 51.337 0 0 0 47.251 16.65 A 30.194 30.194 0 0 0 36.021 18.706 A 28.378 28.378 0 0 0 30.451 21.675 A 30.443 30.443 0 0 0 22.465 29.802 A 41.186 41.186 0 0 0 18.826 36.45 A 47.421 47.421 0 0 0 15.757 46.546 Q 14.551 52.809 14.551 60.3 A 68.268 68.268 0 0 0 15.195 69.931 Q 15.929 75.083 17.504 79.445 A 39.054 39.054 0 0 0 18.451 81.825 A 36.27 36.27 0 0 0 22.849 89.395 A 28.654 28.654 0 0 0 29.251 95.55 Q 36.151 100.35 45.151 100.35 Q 53.551 100.35 60.076 96.825 Q 65.072 94.126 68.441 91.295 A 29.907 29.907 0 0 0 70.351 89.55 L 70.351 66.6 L 48.601 66.6 L 48.601 55.35 L 83.851 55.35 L 83.851 111 L 71.251 111 L 71.251 100.5 A 53.824 53.824 0 0 1 64.684 105.437 A 71.031 71.031 0 0 1 58.501 108.975 A 35.391 35.391 0 0 1 44.392 112.724 A 42.196 42.196 0 0 1 41.851 112.8 A 39.857 39.857 0 0 1 27.882 110.4 A 36.766 36.766 0 0 1 20.251 106.5 A 40.332 40.332 0 0 1 8.354 94.055 A 50.926 50.926 0 0 1 5.401 88.575 A 56.294 56.294 0 0 1 1.039 74.219 A 77.756 77.756 0 0 1 0.001 61.2 Q 0.001 44.4 5.701 31.575 A 49.095 49.095 0 0 1 14.377 18.153 A 44.183 44.183 0 0 1 22.126 11.475 A 41.75 41.75 0 0 1 39.18 4.875 A 55.595 55.595 0 0 1 48.001 4.2 A 67.888 67.888 0 0 1 56.953 4.763 A 50.413 50.413 0 0 1 65.401 6.6 Q 73.051 9 79.801 12.75 Z" id="0" vector-effect="non-scaling-stroke"/>
		<path d="M 159.001 39.3 L 159.001 33 L 171.301 33 L 171.301 92.1 A 18.225 18.225 0 0 0 171.453 94.554 Q 171.838 97.376 173.195 98.806 A 4.448 4.448 0 0 0 174.076 99.525 Q 176.851 101.25 180.151 101.25 L 177.301 111.75 Q 163.256 111.75 160.056 100.62 A 20.385 20.385 0 0 1 159.901 100.05 A 31.961 31.961 0 0 1 155.237 105.189 A 42.747 42.747 0 0 1 150.526 108.825 A 22.392 22.392 0 0 1 143.096 111.98 Q 139.606 112.8 135.451 112.8 Q 125.701 112.8 117.751 107.85 A 34.42 34.42 0 0 1 106.631 96.56 A 41.884 41.884 0 0 1 105.076 93.825 Q 100.351 84.75 100.351 72.45 A 49.713 49.713 0 0 1 101.846 60.047 A 41.952 41.952 0 0 1 105.076 51.45 Q 109.801 42.15 118.126 36.675 A 33.446 33.446 0 0 1 134.918 31.265 A 41.082 41.082 0 0 1 137.251 31.2 A 33.876 33.876 0 0 1 144.441 31.936 A 28.055 28.055 0 0 1 149.476 33.525 A 39.003 39.003 0 0 1 155.906 36.966 A 33.154 33.154 0 0 1 159.001 39.3 Z M 157.801 91.05 L 157.801 49.2 Q 153.751 46.35 148.876 44.625 Q 144.001 42.9 138.601 42.9 A 23.887 23.887 0 0 0 131.144 44.031 A 21.035 21.035 0 0 0 125.926 46.575 A 24.451 24.451 0 0 0 118.397 54.711 A 29.944 29.944 0 0 0 117.301 56.775 A 30.995 30.995 0 0 0 114.671 65.29 A 41.517 41.517 0 0 0 114.151 72 Q 114.151 80.4 117.301 86.925 A 26.403 26.403 0 0 0 121.959 93.744 A 23.545 23.545 0 0 0 126.001 97.125 Q 131.551 100.8 138.451 100.8 Q 144.151 100.8 149.251 98.025 A 29.176 29.176 0 0 0 156.331 92.697 A 27.106 27.106 0 0 0 157.801 91.05 Z" id="1" vector-effect="non-scaling-stroke"/>
		<path d="M 211.651 111 L 198.151 111 L 198.151 33 L 211.651 33 L 211.651 111 Z M 198.357 16.932 A 8.959 8.959 0 0 0 204.901 19.65 Q 209.251 19.65 211.801 17.025 A 8.665 8.665 0 0 0 213.938 13.325 A 11.266 11.266 0 0 0 214.351 10.2 A 10.887 10.887 0 0 0 214.35 10.078 A 9.091 9.091 0 0 0 211.576 3.525 Q 208.801 0.75 204.901 0.75 A 12.396 12.396 0 0 0 202.417 0.987 A 8.492 8.492 0 0 0 198.001 3.3 Q 195.451 5.85 195.451 10.2 A 8.987 8.987 0 0 0 196.189 13.828 A 9.965 9.965 0 0 0 198.226 16.8 A 11.203 11.203 0 0 0 198.357 16.932 Z" id="2" vector-effect="non-scaling-stroke"/>
		<path d="M 289.051 39.3 L 289.051 33 L 301.351 33 L 301.351 92.1 A 18.225 18.225 0 0 0 301.503 94.554 Q 301.888 97.376 303.245 98.806 A 4.448 4.448 0 0 0 304.126 99.525 Q 306.901 101.25 310.201 101.25 L 307.351 111.75 Q 293.306 111.75 290.106 100.62 A 20.385 20.385 0 0 1 289.951 100.05 A 31.961 31.961 0 0 1 285.287 105.189 A 42.747 42.747 0 0 1 280.576 108.825 A 22.392 22.392 0 0 1 273.146 111.98 Q 269.656 112.8 265.501 112.8 Q 255.751 112.8 247.801 107.85 A 34.42 34.42 0 0 1 236.681 96.56 A 41.884 41.884 0 0 1 235.126 93.825 Q 230.401 84.75 230.401 72.45 A 49.713 49.713 0 0 1 231.896 60.047 A 41.952 41.952 0 0 1 235.126 51.45 Q 239.851 42.15 248.176 36.675 A 33.446 33.446 0 0 1 264.968 31.265 A 41.082 41.082 0 0 1 267.301 31.2 A 33.876 33.876 0 0 1 274.491 31.936 A 28.055 28.055 0 0 1 279.526 33.525 A 39.003 39.003 0 0 1 285.956 36.966 A 33.154 33.154 0 0 1 289.051 39.3 Z M 287.851 91.05 L 287.851 49.2 Q 283.801 46.35 278.926 44.625 Q 274.051 42.9 268.651 42.9 A 23.887 23.887 0 0 0 261.194 44.031 A 21.035 21.035 0 0 0 255.976 46.575 A 24.451 24.451 0 0 0 248.447 54.711 A 29.944 29.944 0 0 0 247.351 56.775 A 30.995 30.995 0 0 0 244.721 65.29 A 41.517 41.517 0 0 0 244.201 72 Q 244.201 80.4 247.351 86.925 A 26.403 26.403 0 0 0 252.009 93.744 A 23.545 23.545 0 0 0 256.051 97.125 Q 261.601 100.8 268.501 100.8 Q 274.201 100.8 279.301 98.025 A 29.176 29.176 0 0 0 286.381 92.697 A 27.106 27.106 0 0 0 287.851 91.05 Z" id="3" vector-effect="non-scaling-stroke"/>
		<path d="M 442.051 9.6 L 437.701 21.6 Q 433.051 19.35 428.176 18 Q 423.301 16.65 416.701 16.65 A 31.759 31.759 0 0 0 404.844 18.833 A 29.971 29.971 0 0 0 399.526 21.6 A 31.75 31.75 0 0 0 389.977 31.472 A 40.467 40.467 0 0 0 387.601 35.85 Q 383.591 44.423 383.277 56.311 A 77.389 77.389 0 0 0 383.251 58.35 A 62.794 62.794 0 0 0 384.175 69.383 A 46.394 46.394 0 0 0 387.526 80.4 A 38.516 38.516 0 0 0 392.905 89.142 A 32.134 32.134 0 0 0 399.376 95.1 A 29.555 29.555 0 0 0 416.094 100.345 A 35.842 35.842 0 0 0 416.701 100.35 A 50.573 50.573 0 0 0 422.657 100.018 Q 425.675 99.659 428.274 98.914 A 28.92 28.92 0 0 0 429.451 98.55 Q 434.851 96.75 439.951 93.9 L 444.301 105.75 A 56.342 56.342 0 0 1 437.559 108.817 A 71.841 71.841 0 0 1 431.626 110.775 Q 424.96 112.669 416.259 112.792 A 86.123 86.123 0 0 1 415.051 112.8 A 48.576 48.576 0 0 1 401.063 110.849 A 41.941 41.941 0 0 1 390.901 106.275 A 42.901 42.901 0 0 1 376.086 90.607 A 52.374 52.374 0 0 1 374.551 87.675 Q 368.701 75.6 368.701 58.95 A 74.058 74.058 0 0 1 370.182 43.819 A 58.118 58.118 0 0 1 374.626 30.525 A 47.453 47.453 0 0 1 385.094 16.079 A 44.791 44.791 0 0 1 391.426 11.175 A 44.057 44.057 0 0 1 410.447 4.558 A 55.938 55.938 0 0 1 416.851 4.2 A 68.458 68.458 0 0 1 424.439 4.602 A 52.8 52.8 0 0 1 430.501 5.625 A 57.336 57.336 0 0 1 441.713 9.442 A 53.419 53.419 0 0 1 442.051 9.6 Z" id="5" vector-effect="non-scaling-stroke"/>
		<path d="M 511.201 39.3 L 511.201 33 L 523.501 33 L 523.501 92.1 A 18.225 18.225 0 0 0 523.653 94.554 Q 524.038 97.376 525.395 98.806 A 4.448 4.448 0 0 0 526.276 99.525 Q 529.051 101.25 532.351 101.25 L 529.501 111.75 Q 515.456 111.75 512.256 100.62 A 20.385 20.385 0 0 1 512.101 100.05 A 31.961 31.961 0 0 1 507.437 105.189 A 42.747 42.747 0 0 1 502.726 108.825 A 22.392 22.392 0 0 1 495.296 111.98 Q 491.806 112.8 487.651 112.8 Q 477.901 112.8 469.951 107.85 A 34.42 34.42 0 0 1 458.831 96.56 A 41.884 41.884 0 0 1 457.276 93.825 Q 452.551 84.75 452.551 72.45 A 49.713 49.713 0 0 1 454.046 60.047 A 41.952 41.952 0 0 1 457.276 51.45 Q 462.001 42.15 470.326 36.675 A 33.446 33.446 0 0 1 487.118 31.265 A 41.082 41.082 0 0 1 489.451 31.2 A 33.876 33.876 0 0 1 496.641 31.936 A 28.055 28.055 0 0 1 501.676 33.525 A 39.003 39.003 0 0 1 508.106 36.966 A 33.154 33.154 0 0 1 511.201 39.3 Z M 510.001 91.05 L 510.001 49.2 Q 505.951 46.35 501.076 44.625 Q 496.201 42.9 490.801 42.9 A 23.887 23.887 0 0 0 483.344 44.031 A 21.035 21.035 0 0 0 478.126 46.575 A 24.451 24.451 0 0 0 470.597 54.711 A 29.944 29.944 0 0 0 469.501 56.775 A 30.995 30.995 0 0 0 466.871 65.29 A 41.517 41.517 0 0 0 466.351 72 Q 466.351 80.4 469.501 86.925 A 26.403 26.403 0 0 0 474.159 93.744 A 23.545 23.545 0 0 0 478.201 97.125 Q 483.751 100.8 490.651 100.8 Q 496.351 100.8 501.451 98.025 A 29.176 29.176 0 0 0 508.531 92.697 A 27.106 27.106 0 0 0 510.001 91.05 Z" id="6" vector-effect="non-scaling-stroke"/>
		<path d="M 549.601 86.55 L 549.601 0 L 563.101 0 L 563.101 85.2 A 30.966 30.966 0 0 0 563.383 89.532 Q 563.686 91.674 564.316 93.409 A 11.96 11.96 0 0 0 566.476 97.2 A 11.045 11.045 0 0 0 573.351 100.913 A 16.086 16.086 0 0 0 575.851 101.1 Q 578.701 101.1 581.476 100.425 Q 584.251 99.75 586.201 98.85 L 589.501 109.8 A 27.226 27.226 0 0 1 587.097 110.725 Q 585.186 111.366 582.826 111.9 A 35.725 35.725 0 0 1 578.093 112.628 A 45.77 45.77 0 0 1 574.051 112.8 Q 567.151 112.8 561.601 110.175 A 19.024 19.024 0 0 1 553.614 103.027 A 23.784 23.784 0 0 1 552.826 101.7 Q 549.601 95.85 549.601 86.55 Z" id="7" vector-effect="non-scaling-stroke"/>
		<path d="M 655.801 111 L 595.501 111 L 595.501 100.35 L 638.551 44.7 L 596.401 44.7 L 596.401 33 L 655.051 33 L 655.051 43.35 L 612.151 99 L 655.801 99 L 655.801 111 Z" id="8" vector-effect="non-scaling-stroke"/>
		<path d="M 724.951 39.3 L 724.951 33 L 737.251 33 L 737.251 92.1 A 18.225 18.225 0 0 0 737.403 94.554 Q 737.788 97.376 739.145 98.806 A 4.448 4.448 0 0 0 740.026 99.525 Q 742.801 101.25 746.101 101.25 L 743.251 111.75 Q 729.206 111.75 726.006 100.62 A 20.385 20.385 0 0 1 725.851 100.05 A 31.961 31.961 0 0 1 721.187 105.189 A 42.747 42.747 0 0 1 716.476 108.825 A 22.392 22.392 0 0 1 709.046 111.98 Q 705.556 112.8 701.401 112.8 Q 691.651 112.8 683.701 107.85 A 34.42 34.42 0 0 1 672.581 96.56 A 41.884 41.884 0 0 1 671.026 93.825 Q 666.301 84.75 666.301 72.45 A 49.713 49.713 0 0 1 667.796 60.047 A 41.952 41.952 0 0 1 671.026 51.45 Q 675.751 42.15 684.076 36.675 A 33.446 33.446 0 0 1 700.868 31.265 A 41.082 41.082 0 0 1 703.201 31.2 A 33.876 33.876 0 0 1 710.391 31.936 A 28.055 28.055 0 0 1 715.426 33.525 A 39.003 39.003 0 0 1 721.856 36.966 A 33.154 33.154 0 0 1 724.951 39.3 Z M 723.751 91.05 L 723.751 49.2 Q 719.701 46.35 714.826 44.625 Q 709.951 42.9 704.551 42.9 A 23.887 23.887 0 0 0 697.094 44.031 A 21.035 21.035 0 0 0 691.876 46.575 A 24.451 24.451 0 0 0 684.347 54.711 A 29.944 29.944 0 0 0 683.251 56.775 A 30.995 30.995 0 0 0 680.621 65.29 A 41.517 41.517 0 0 0 680.101 72 Q 680.101 80.4 683.251 86.925 A 26.403 26.403 0 0 0 687.909 93.744 A 23.545 23.545 0 0 0 691.951 97.125 Q 697.501 100.8 704.401 100.8 Q 710.101 100.8 715.201 98.025 A 29.176 29.176 0 0 0 722.281 92.697 A 27.106 27.106 0 0 0 723.751 91.05 Z" id="9" vector-effect="non-scaling-stroke"/>
		<path d="M 814.201 40.8 L 814.201 0 L 827.701 0 L 827.701 92.1 A 18.225 18.225 0 0 0 827.853 94.554 Q 828.238 97.376 829.595 98.806 A 4.448 4.448 0 0 0 830.476 99.525 Q 833.251 101.25 836.551 101.25 L 833.701 111.75 A 26.78 26.78 0 0 1 827.314 111.049 Q 818.67 108.922 816.301 100.35 A 29.229 29.229 0 0 1 812.056 105.077 Q 809.855 107.071 807.076 108.9 Q 801.481 112.583 793.143 112.788 A 40.375 40.375 0 0 1 792.151 112.8 Q 782.551 112.8 774.601 107.85 Q 766.651 102.9 762.001 93.825 A 41.299 41.299 0 0 1 758.118 81.911 A 55.831 55.831 0 0 1 757.351 72.45 A 50.91 50.91 0 0 1 758.684 60.579 A 41.944 41.944 0 0 1 762.076 51.3 A 40.936 40.936 0 0 1 769.004 41.414 A 36.279 36.279 0 0 1 774.676 36.6 Q 782.551 31.2 792.001 31.2 A 32.463 32.463 0 0 1 798.41 31.803 A 23.913 23.913 0 0 1 805.426 34.35 A 51.515 51.515 0 0 1 809.297 36.734 Q 811.131 37.986 812.588 39.261 A 24.885 24.885 0 0 1 814.201 40.8 Z M 814.201 91.35 L 814.201 52.65 Q 811.638 49.412 807.255 46.599 A 42.21 42.21 0 0 0 806.251 45.975 Q 801.151 42.9 795.001 42.9 A 22.419 22.419 0 0 0 787.567 44.1 A 20.077 20.077 0 0 0 782.401 46.8 Q 777.001 50.7 774.076 57.225 A 33.285 33.285 0 0 0 771.466 66.772 A 42.17 42.17 0 0 0 771.151 72 A 37.135 37.135 0 0 0 772.04 80.279 A 30.491 30.491 0 0 0 774.301 86.775 A 27.307 27.307 0 0 0 778.861 93.545 A 24.183 24.183 0 0 0 782.926 97.05 A 21.145 21.145 0 0 0 795.151 100.8 Q 800.701 100.8 805.726 98.175 Q 810.751 95.55 814.201 91.35 Z" id="10" vector-effect="non-scaling-stroke"/>
		<path d="M 872.943 110.791 A 40.821 40.821 0 0 0 885.901 112.8 A 46.089 46.089 0 0 0 889.313 112.675 A 37.886 37.886 0 0 0 905.776 107.7 Q 914.551 102.6 919.651 93.375 A 39.383 39.383 0 0 0 923.63 82.663 A 51.276 51.276 0 0 0 924.751 71.7 A 51.813 51.813 0 0 0 924.023 62.837 A 38.692 38.692 0 0 0 919.576 50.175 Q 914.401 41.1 905.626 36.15 A 37.273 37.273 0 0 0 898.664 33.109 A 41.607 41.607 0 0 0 885.901 31.2 A 46.987 46.987 0 0 0 883.531 31.259 A 39.254 39.254 0 0 0 866.101 36.15 Q 857.251 41.1 852.151 50.25 A 39.034 39.034 0 0 0 848.027 61.635 A 52.509 52.509 0 0 0 847.051 72 A 52.23 52.23 0 0 0 847.448 78.53 A 41.176 41.176 0 0 0 852.076 93.225 Q 857.101 102.45 865.951 107.625 A 36.839 36.839 0 0 0 872.943 110.791 Z M 885.901 100.8 A 28.112 28.112 0 0 0 893.74 99.764 A 21.001 21.001 0 0 0 904.351 92.775 A 28.204 28.204 0 0 0 910.08 80.64 A 40.657 40.657 0 0 0 910.951 72 A 32.064 32.064 0 0 0 909.114 61.071 A 30.021 30.021 0 0 0 907.651 57.675 A 28.796 28.796 0 0 0 901.393 49.322 A 27.256 27.256 0 0 0 898.726 47.175 Q 893.101 43.2 885.901 43.2 Q 874.051 43.2 867.451 51 A 26.817 26.817 0 0 0 861.94 62.06 Q 860.953 66.047 860.86 70.725 A 49.304 49.304 0 0 0 860.851 71.7 Q 860.851 79.5 864.151 86.175 A 29.156 29.156 0 0 0 869.446 93.735 A 26.441 26.441 0 0 0 873.076 96.825 Q 878.701 100.8 885.901 100.8 Z" id="11" vector-effect="non-scaling-stroke"/>
		<path d="M 936.001 104.7 L 941.701 93.45 A 27.835 27.835 0 0 0 946.416 96.639 Q 948.749 97.905 951.526 98.925 Q 957.451 101.1 964.201 101.1 A 40.669 40.669 0 0 0 968.825 100.855 Q 973.604 100.307 976.553 98.527 A 11.608 11.608 0 0 0 976.876 98.325 A 11.174 11.174 0 0 0 979.176 96.386 A 7.578 7.578 0 0 0 981.151 91.2 A 10.684 10.684 0 0 0 980.68 87.979 A 9.318 9.318 0 0 0 979.576 85.65 A 9.576 9.576 0 0 0 978.183 84.009 Q 976.557 82.451 973.801 80.925 Q 970.007 78.825 963.153 76.419 A 155.394 155.394 0 0 0 961.651 75.9 A 69.925 69.925 0 0 1 955.054 73.286 Q 948.904 70.452 945.226 66.975 Q 939.751 61.8 939.751 52.65 A 18.18 18.18 0 0 1 945.673 39.127 A 26.194 26.194 0 0 1 947.626 37.425 Q 955.501 31.2 969.451 31.2 A 61.191 61.191 0 0 1 976.12 31.546 Q 979.693 31.938 982.801 32.775 A 58.154 58.154 0 0 1 989.002 34.808 A 46.666 46.666 0 0 1 993.301 36.75 L 989.551 47.85 A 36.792 36.792 0 0 0 984.049 45.202 A 45.287 45.287 0 0 0 980.326 43.95 A 37.536 37.536 0 0 0 973.601 42.679 A 47.756 47.756 0 0 0 968.851 42.45 Q 963.847 42.45 960.387 43.746 A 12.764 12.764 0 0 0 957.001 45.6 Q 954.312 47.692 953.408 50.048 A 6.794 6.794 0 0 0 952.951 52.5 A 7.381 7.381 0 0 0 955.193 57.827 A 10.623 10.623 0 0 0 956.101 58.65 Q 959.199 61.158 968.098 64.1 A 126.729 126.729 0 0 0 968.401 64.2 A 101.629 101.629 0 0 1 975.994 67.047 Q 983.213 70.115 987.35 73.543 A 22.42 22.42 0 0 1 989.101 75.15 A 20.396 20.396 0 0 1 994.927 89.02 A 26.842 26.842 0 0 1 994.951 90.15 A 20.81 20.81 0 0 1 993.358 98.424 Q 991.408 102.976 987.074 106.282 A 24.927 24.927 0 0 1 986.476 106.725 Q 979.366 111.821 968.193 112.642 A 60.634 60.634 0 0 1 963.751 112.8 A 59.985 59.985 0 0 1 954.959 112.184 A 46.422 46.422 0 0 1 947.776 110.55 Q 940.651 108.3 936.001 104.7 Z" id="12" vector-effect="non-scaling-stroke"/>
	</g>
</svg>