<svg width="529.4749999999999px" height="99.2px" xmlns="http://www.w3.org/2000/svg" viewBox="-14.737499999999955 25.4 529.4749999999999 99.2" style="background: rgba(0, 0, 0, 0);" preserveAspectRatio="xMidYMid"><defs><filter id="editing-neon" x="-100%" y="-100%" width="300%" height="300%"><feFlood flood-color="#005cab" result="flood"></feFlood><feComposite operator="in" in="flood" in2="SourceAlpha" result="color"></feComposite><feFlood flood-color="#005cab" result="flood2"></feFlood><feComposite operator="in" in="flood2" in2="SourceAlpha" result="color2"></feComposite><feMorphology operator="dilate" radius="2" in="color" result="dilate"></feMorphology><feGaussianBlur stdDeviation="6" in="color" result="blur1"></feGaussianBlur><feGaussianBlur stdDeviation="2.5" in="color" result="blur2"></feGaussianBlur><feGaussianBlur stdDeviation="1" in="SourceAlpha" result="blur3"></feGaussianBlur><feGaussianBlur stdDeviation="6" in="dilate" result="blur4"></feGaussianBlur><feConvolveMatrix in="color2" result="conv" order="3,3" divisor="1" kernelMatrix="1 1 1  1 1 1  1 1 1"></feConvolveMatrix><feMerge><feMergeNode in="blur1"></feMergeNode><feMergeNode in="blur2"></feMergeNode><feMergeNode in="blur4"></feMergeNode><feMergeNode in="blur3"></feMergeNode><feMergeNode in="blur3"></feMergeNode><feMergeNode in="blur3"></feMergeNode><feMergeNode in="blur3"></feMergeNode><feMergeNode in="conv"></feMergeNode><feMergeNode in="SourceGraphic"></feMergeNode></feMerge></filter></defs><g filter="url(#editing-neon)"><g transform="translate(62.97498854994774, 98.25000190734863)"><path d="M22.20-7.70L22.20-7.70L22.20-7.70Q23.15-6.50 23.15-4.55L23.15-4.55L23.15-4.55Q23.15-1.85 21.15-0.43L21.15-0.43L21.15-0.43Q19.15 1 16 1L16 1L16 1Q14.20 1 11.45 0.60L11.45 0.60L11.45 0.60Q6.05-0.25 4.40-0.25L4.40-0.25L4.40-0.25Q2.75-0.25 2.10-0.18L2.10-0.18L2.10-0.18Q1.45-0.10 0.40 0L0.40 0L6.55-33L28.10-33L28.10-33Q28.10-29.95 26.63-28.35L26.63-28.35L26.63-28.35Q25.15-26.75 22.25-26.75L22.25-26.75L22.25-26.75Q19.35-26.75 16.40-28.10L16.40-28.10L14.85-19.35L23.75-19.35L23.75-19.35Q23.75-16.70 22.45-15.23L22.45-15.23L22.45-15.23Q21.15-13.75 18.98-13.75L18.98-13.75L18.98-13.75Q16.80-13.75 15.45-14.25L15.45-14.25L15.45-14.25Q14.10-14.75 13.95-14.90L13.95-14.90L12.15-5.45L12.15-5.45Q13.35-5.30 15.60-5.30L15.60-5.30L15.60-5.30Q19.45-5.30 22.20-7.70ZM39.85 10L41.95-0.15L41.95-0.15Q40.30 1 37.68 1L37.68 1L37.68 1Q35.05 1 33.13 0.40L33.13 0.40L33.13 0.40Q31.20-0.20 30.00-1.50L30.00-1.50L30.00-1.50Q27.70-4 27.70-9.85L27.70-9.85L27.70-9.85Q27.70-17.25 32.10-21.90L32.10-21.90L32.10-21.90Q36.40-26.50 43.50-26.50L43.50-26.50L43.50-26.50Q46.05-26.50 47.90-25.65L47.90-25.65L56.75-26.50L49.95 9L39.85 10ZM39-2.10L39-2.10L39-2.10Q40.55-2.10 41.70-3.68L41.70-3.68L41.70-3.68Q42.85-5.25 43.35-7.95L43.35-7.95L46-22.60L46-22.60Q44.95-23.50 43.73-23.50L43.73-23.50L43.73-23.50Q42.50-23.50 41.78-23.10L41.78-23.10L41.78-23.10Q41.05-22.70 40.50-21.80L40.50-21.80L40.50-21.80Q39.05-19.45 37.90-12.65L37.90-12.65L37.90-12.65Q37.25-8.60 37.25-5.35L37.25-5.35L37.25-5.35Q37.25-2.10 39-2.10ZM74.65-2.10L74.65-2.10L74.65-2.10Q72.25 1 66.30 1L66.30 1L66.30 1Q63.20 1 60.95-0.88L60.95-0.88L60.95-0.88Q58.70-2.75 58.70-5.45L58.70-5.45L58.70-5.45Q58.70-6.95 58.85-7.70L58.85-7.70L62.20-25.50L72.35-26.50L68.70-7.20L68.70-7.20Q68.50-6.10 68.50-5.45L68.50-5.45L68.50-5.45Q68.50-2.55 70.25-2.55L70.25-2.55L70.25-2.55Q72.20-2.55 73.60-5.20L73.60-5.20L73.60-5.20Q74.05-6.05 74.25-7.15L74.25-7.15L77.80-25.50L87.65-26.50L83.95-7L83.95-7Q83.80-6.25 83.80-5.45L83.80-5.45L83.80-5.45Q83.80-4.65 84.25-3.78L84.25-3.78L84.25-3.78Q84.70-2.90 86.15-2.70L86.15-2.70L86.15-2.70Q85.85-1.50 84.80-0.70L84.80-0.70L84.80-0.70Q82.60 1 80.22 1L80.22 1L80.22 1Q77.85 1 76.45 0.15L76.45 0.15L76.45 0.15Q75.05-0.70 74.65-2.10ZM102.35-2.75L102.35-2.75L102.35-2.75Q100.80 1 95.85 1L95.85 1L95.85 1Q93.30 1 91.70-0.75L91.70-0.75L91.70-0.75Q90.35-2.30 90.35-3.85L90.35-3.85L90.35-3.85Q90.35-7.90 92.20-15.80L92.20-15.80L94.05-25.50L104.20-26.50L101.15-10.70L101.15-10.70Q100.30-7 100.30-5.70L100.30-5.70L100.30-5.70Q100.30-2.85 102.35-2.75ZM94.95-32.45L94.95-32.45L94.95-32.45Q94.95-34.40 96.58-35.45L96.58-35.45L96.58-35.45Q98.20-36.50 100.55-36.50L100.55-36.50L100.55-36.50Q102.90-36.50 104.33-35.45L104.33-35.45L104.33-35.45Q105.75-34.40 105.75-32.45L105.75-32.45L105.75-32.45Q105.75-30.50 104.17-29.50L104.17-29.50L104.17-29.50Q102.60-28.50 100.25-28.50L100.25-28.50L100.25-28.50Q97.90-28.50 96.42-29.50L96.42-29.50L96.42-29.50Q94.95-30.50 94.95-32.45ZM129.90-3.43L129.90-3.43L129.90-3.43Q127.80-1.30 124.92-0.15L124.92-0.15L124.92-0.15Q122.05 1 119.20 1L119.20 1L119.20 1Q116.35 1 115.35 0.50L115.35 0.50L113.80 9L103.65 10L110.55-25.50L118.70-26.35L118.05-22.90L118.05-22.90Q120.15-26.45 124.50-26.45L124.50-26.45L124.50-26.45Q129.40-26.45 132-23.30L132-23.30L132-23.30Q134.30-20.45 134.30-16.10L134.30-16.10L134.30-16.10Q134.30-11.75 133.15-8.65L133.15-8.65L133.15-8.65Q132-5.55 129.90-3.43ZM118.60-17.45L115.95-2.80L115.95-2.80Q117-1.90 118.30-1.90L118.30-1.90L118.30-1.90Q119.60-1.90 120.35-2.40L120.35-2.40L120.35-2.40Q121.10-2.90 121.65-3.90L121.65-3.90L121.65-3.90Q123.15-6.60 124.35-14.80L124.35-14.80L124.35-14.80Q124.70-17.20 124.70-19.55L124.70-19.55L124.70-19.55Q124.70-21.90 124.17-22.65L124.17-22.65L124.17-22.65Q123.65-23.40 122.65-23.40L122.65-23.40L122.65-23.40Q119.60-23.40 118.60-17.45L118.60-17.45ZM148.20 1L148.20 1L148.20 1Q137.20 1 137.20-9.35L137.20-9.35L137.20-9.35Q137.20-16.70 141.25-21.45L141.25-21.45L141.25-21.45Q145.55-26.50 153-26.50L153-26.50L153-26.50Q158.40-26.50 161.15-24L161.15-24L161.15-24Q163.90-21.50 163.90-16.25L163.90-16.25L163.90-16.25Q163.90-8.25 159.60-3.60L159.60-3.60L159.60-3.60Q155.40 1 148.20 1ZM149.50-20.75L149.50-20.75L149.50-20.75Q148.90-19.40 148.42-17.38L148.42-17.38L148.42-17.38Q147.95-15.35 147.35-12.15L147.35-12.15L147.35-12.15Q146.75-8.95 146.75-5L146.75-5L146.75-5Q146.75-3.70 147.17-2.85L147.17-2.85L147.17-2.85Q147.60-2 148.75-2L148.75-2L148.75-2Q149.90-2 150.63-2.55L150.63-2.55L150.63-2.55Q151.35-3.10 151.90-4.40L151.90-4.40L151.90-4.40Q152.90-6.70 153.70-10.98L153.70-10.98L153.70-10.98Q154.50-15.25 154.57-17.10L154.57-17.10L154.57-17.10Q154.65-18.95 154.65-20.33L154.65-20.33L154.65-20.33Q154.65-21.70 154.25-22.60L154.25-22.60L154.25-22.60Q153.85-23.50 152.72-23.50L152.72-23.50L152.72-23.50Q151.60-23.50 150.85-22.80L150.85-22.80L150.85-22.80Q150.10-22.10 149.50-20.75ZM181.80-17.55L181.80-17.55L181.80-17.55Q182.50-19.40 182.50-21L182.50-21L182.50-21Q182.50-23.95 180.10-23.95L180.10-23.95L180.10-23.95Q178.85-23.95 177.82-22.83L177.82-22.83L177.82-22.83Q176.80-21.70 176.80-20.30L176.80-20.30L176.80-20.30Q176.80-19.30 177.60-18.50L177.60-18.50L177.60-18.50Q178.75-17.40 181.70-15.60L181.70-15.60L181.70-15.60Q184.65-13.80 185.78-12.33L185.78-12.33L185.78-12.33Q186.90-10.85 186.90-8.83L186.90-8.83L186.90-8.83Q186.90-6.80 185.93-4.95L185.93-4.95L185.93-4.95Q184.95-3.10 183.20-1.80L183.20-1.80L183.20-1.80Q179.45 1 173.45 1L173.45 1L173.45 1Q170.20 1 167.70-0.70L167.70-0.70L167.70-0.70Q165.20-2.35 165.20-4.30L165.20-4.30L165.20-4.30Q165.20-6.25 166.63-7.40L166.63-7.40L166.63-7.40Q168.05-8.55 170.15-8.55L170.15-8.55L170.15-8.55Q172.25-8.55 173.55-7.75L173.55-7.75L173.55-7.75Q172.90-6.10 172.90-5L172.90-5L172.90-5Q172.90-1.70 175.70-1.70L175.70-1.70L175.70-1.70Q176.90-1.70 177.70-2.45L177.70-2.45L177.70-2.45Q178.50-3.20 178.50-4.50L178.50-4.50L178.50-4.50Q178.50-7.05 174.20-9.75L174.20-9.75L174.20-9.75Q170.70-12.05 169.90-12.95L169.90-12.95L169.90-12.95Q168.55-14.55 168.55-16.55L168.55-16.55L168.55-16.55Q168.55-18.55 169.50-20.45L169.50-20.45L169.50-20.45Q170.45-22.35 172.20-23.70L172.20-23.70L172.20-23.70Q175.85-26.50 182.20-26.50L182.20-26.50L182.20-26.50Q185.45-26.50 187.38-25.20L187.38-25.20L187.38-25.20Q189.30-23.90 189.30-21.70L189.30-21.70L189.30-21.70Q189.30-19.50 187.97-18.25L187.97-18.25L187.97-18.25Q186.65-17 184.25-17L184.25-17L184.25-17Q182.60-17 181.80-17.55ZM202.40-7.40L202.40-7.40L202.40-7.40Q202.40-9.35 202.90-11.85L202.90-11.85L206.95-33L218.00-33L214.00-11.70L214.00-11.70Q213.55-9.35 213.55-7.63L213.55-7.63L213.55-7.63Q213.55-5.90 214.28-5L214.28-5L214.28-5Q215.00-4.10 216.35-4.10L216.35-4.10L216.35-4.10Q217.70-4.10 218.55-4.45L218.55-4.45L218.55-4.45Q219.40-4.80 220.10-5.65L220.10-5.65L220.10-5.65Q221.45-7.35 222.30-11.70L222.30-11.70L226.35-33L233.90-33L229.90-11.75L229.90-11.75Q228.50-4.65 224.65-1.80L224.65-1.80L224.65-1.80Q220.90 1 213.50 1L213.50 1L213.50 1Q207.95 1 205.00-1.40L205.00-1.40L205.00-1.40Q202.40-3.50 202.40-7.40ZM249.85-17.55L249.85-17.55L249.85-17.55Q250.55-19.40 250.55-21L250.55-21L250.55-21Q250.55-23.95 248.15-23.95L248.15-23.95L248.15-23.95Q246.90-23.95 245.88-22.83L245.88-22.83L245.88-22.83Q244.85-21.70 244.85-20.30L244.85-20.30L244.85-20.30Q244.85-19.30 245.65-18.50L245.65-18.50L245.65-18.50Q246.80-17.40 249.75-15.60L249.75-15.60L249.75-15.60Q252.70-13.80 253.83-12.33L253.83-12.33L253.83-12.33Q254.95-10.85 254.95-8.83L254.95-8.83L254.95-8.83Q254.95-6.80 253.98-4.95L253.98-4.95L253.98-4.95Q253-3.10 251.25-1.80L251.25-1.80L251.25-1.80Q247.50 1 241.50 1L241.50 1L241.50 1Q238.25 1 235.75-0.70L235.75-0.70L235.75-0.70Q233.25-2.35 233.25-4.30L233.25-4.30L233.25-4.30Q233.25-6.25 234.68-7.40L234.68-7.40L234.68-7.40Q236.10-8.55 238.20-8.55L238.20-8.55L238.20-8.55Q240.30-8.55 241.60-7.75L241.60-7.75L241.60-7.75Q240.95-6.10 240.95-5L240.95-5L240.95-5Q240.95-1.70 243.75-1.70L243.75-1.70L243.75-1.70Q244.95-1.70 245.75-2.45L245.75-2.45L245.75-2.45Q246.55-3.20 246.55-4.50L246.55-4.50L246.55-4.50Q246.55-7.05 242.25-9.75L242.25-9.75L242.25-9.75Q238.75-12.05 237.95-12.95L237.95-12.95L237.95-12.95Q236.60-14.55 236.60-16.55L236.60-16.55L236.60-16.55Q236.60-18.55 237.55-20.45L237.55-20.45L237.55-20.45Q238.50-22.35 240.25-23.70L240.25-23.70L240.25-23.70Q243.90-26.50 250.25-26.50L250.25-26.50L250.25-26.50Q253.50-26.50 255.43-25.20L255.43-25.20L255.43-25.20Q257.35-23.90 257.35-21.70L257.35-21.70L257.35-21.70Q257.35-19.50 256.03-18.25L256.03-18.25L256.03-18.25Q254.70-17 252.30-17L252.30-17L252.30-17Q250.65-17 249.85-17.55ZM261.38-1.50L261.38-1.50L261.38-1.50Q260.20-2.80 259.68-4.85L259.68-4.85L259.68-4.85Q259.15-6.90 259.15-10.25L259.15-10.25L259.15-10.25Q259.15-13.60 260.30-16.65L260.30-16.65L260.30-16.65Q261.45-19.70 263.55-21.90L263.55-21.90L263.55-21.90Q267.85-26.50 274.95-26.50L274.95-26.50L274.95-26.50Q277.50-26.50 279.35-25.65L279.35-25.65L287.90-26.50L284.20-7L284.20-7Q284.05-6.40 284.05-5.30L284.05-5.30L284.05-5.30Q284.05-4.20 284.73-3.50L284.73-3.50L284.73-3.50Q285.40-2.80 286.40-2.70L286.40-2.70L286.40-2.70Q285.90-1 284.08 0L284.08 0L284.08 0Q282.25 1 280.20 1L280.20 1L280.20 1Q278.15 1 276.78 0.23L276.78 0.23L276.78 0.23Q275.40-0.55 275-1.85L275-1.85L275-1.85Q274.20-0.60 272.50 0.20L272.50 0.20L272.50 0.20Q270.80 1 268.53 1L268.53 1L268.53 1Q266.25 1 264.40 0.40L264.40 0.40L264.40 0.40Q262.55-0.20 261.38-1.50ZM271.93-21.80L271.93-21.80L271.93-21.80Q271.35-20.90 270.85-19.38L270.85-19.38L270.85-19.38Q270.35-17.85 269.53-13.78L269.53-13.78L269.53-13.78Q268.70-9.70 268.70-6.80L268.70-6.80L268.70-6.80Q268.70-3.90 269.15-3.05L269.15-3.05L269.15-3.05Q269.60-2.20 270.40-2.20L270.40-2.20L270.40-2.20Q272-2.20 273.18-3.73L273.18-3.73L273.18-3.73Q274.35-5.25 274.80-7.95L274.80-7.95L277.45-22.60L277.45-22.60Q276.40-23.50 275.18-23.50L275.18-23.50L275.18-23.50Q273.95-23.50 273.23-23.10L273.23-23.10L273.23-23.10Q272.50-22.70 271.93-21.80ZM306.15-26.50L306.15-26.50L306.15-26.50Q307.95-26.50 309.35-26.10L309.35-26.10L309.35-26.10Q309.40-26.30 309.50-26.85L309.50-26.85L309.75-28.40L309.75-28.40Q309.95-29.40 310.25-31.05L310.25-31.05L311.05-35L321-36L315.45-7L315.45-7Q315.40-6.70 315.40-6.20L315.40-6.20L315.40-5.40L315.40-5.40Q315.40-4.30 315.95-3.48L315.95-3.48L315.95-3.48Q316.50-2.65 317.40-2.65L317.40-2.65L317.40-2.65Q316.40-0.30 313.35 0.70L313.35 0.70L313.35 0.70Q312.30 1 310.82 1L310.82 1L310.82 1Q309.35 1 308 0.23L308 0.23L308 0.23Q306.65-0.55 306.25-1.85L306.25-1.85L306.25-1.85Q305.45-0.55 303.85 0.23L303.85 0.23L303.85 0.23Q302.25 1 299.93 1L299.93 1L299.93 1Q297.60 1 295.68 0.40L295.68 0.40L295.68 0.40Q293.75-0.20 292.55-1.50L292.55-1.50L292.55-1.50Q290.35-4.05 290.35-9.85L290.35-9.85L290.35-9.85Q290.35-17.35 294.75-21.90L294.75-21.90L294.75-21.90Q299.15-26.50 306.15-26.50ZM305.80-23.50L305.80-23.50L305.80-23.50Q303.95-23.50 302.95-21.50L302.95-21.50L302.95-21.50Q301.95-19.50 300.93-14.55L300.93-14.55L300.93-14.55Q299.90-9.60 299.90-5.15L299.90-5.15L299.90-5.15Q299.90-2.10 301.70-2.10L301.70-2.10L301.70-2.10Q303.30-2.10 304.43-3.70L304.43-3.70L304.43-3.70Q305.55-5.30 306-7.95L306-7.95L308.70-22.60L308.70-22.60Q307.65-23.50 305.80-23.50ZM332.55 1L332.55 1L332.55 1Q321.55 1 321.55-9.35L321.55-9.35L321.55-9.35Q321.55-16.70 325.60-21.45L325.60-21.45L325.60-21.45Q329.90-26.50 337.35-26.50L337.35-26.50L337.35-26.50Q342.75-26.50 345.50-24L345.50-24L345.50-24Q348.25-21.50 348.25-16.25L348.25-16.25L348.25-16.25Q348.25-8.25 343.95-3.60L343.95-3.60L343.95-3.60Q339.75 1 332.55 1ZM333.85-20.75L333.85-20.75L333.85-20.75Q333.25-19.40 332.78-17.38L332.78-17.38L332.78-17.38Q332.30-15.35 331.70-12.15L331.70-12.15L331.70-12.15Q331.10-8.95 331.10-5L331.10-5L331.10-5Q331.10-3.70 331.53-2.85L331.53-2.85L331.53-2.85Q331.95-2 333.10-2L333.10-2L333.10-2Q334.25-2 334.98-2.55L334.98-2.55L334.98-2.55Q335.70-3.10 336.25-4.40L336.25-4.40L336.25-4.40Q337.25-6.70 338.05-10.98L338.05-10.98L338.05-10.98Q338.85-15.25 338.93-17.10L338.93-17.10L338.93-17.10Q339-18.95 339-20.33L339-20.33L339-20.33Q339-21.70 338.60-22.60L338.60-22.60L338.60-22.60Q338.20-23.50 337.07-23.50L337.07-23.50L337.07-23.50Q335.95-23.50 335.20-22.80L335.20-22.80L335.20-22.80Q334.45-22.10 333.85-20.75ZM366.15-17.55L366.15-17.55L366.15-17.55Q366.85-19.40 366.85-21L366.85-21L366.85-21Q366.85-23.95 364.45-23.95L364.45-23.95L364.45-23.95Q363.20-23.95 362.18-22.83L362.18-22.83L362.18-22.83Q361.15-21.70 361.15-20.30L361.15-20.30L361.15-20.30Q361.15-19.30 361.95-18.50L361.95-18.50L361.95-18.50Q363.10-17.40 366.05-15.60L366.05-15.60L366.05-15.60Q369-13.80 370.13-12.33L370.13-12.33L370.13-12.33Q371.25-10.85 371.25-8.83L371.25-8.83L371.25-8.83Q371.25-6.80 370.28-4.95L370.28-4.95L370.28-4.95Q369.30-3.10 367.55-1.80L367.55-1.80L367.55-1.80Q363.80 1 357.80 1L357.80 1L357.80 1Q354.55 1 352.05-0.70L352.05-0.70L352.05-0.70Q349.55-2.35 349.55-4.30L349.55-4.30L349.55-4.30Q349.55-6.25 350.98-7.40L350.98-7.40L350.98-7.40Q352.40-8.55 354.50-8.55L354.50-8.55L354.50-8.55Q356.60-8.55 357.90-7.75L357.90-7.75L357.90-7.75Q357.25-6.10 357.25-5L357.25-5L357.25-5Q357.25-1.70 360.05-1.70L360.05-1.70L360.05-1.70Q361.25-1.70 362.05-2.45L362.05-2.45L362.05-2.45Q362.85-3.20 362.85-4.50L362.85-4.50L362.85-4.50Q362.85-7.05 358.55-9.75L358.55-9.75L358.55-9.75Q355.05-12.05 354.25-12.95L354.25-12.95L354.25-12.95Q352.90-14.55 352.90-16.55L352.90-16.55L352.90-16.55Q352.90-18.55 353.85-20.45L353.85-20.45L353.85-20.45Q354.80-22.35 356.55-23.70L356.55-23.70L356.55-23.70Q360.20-26.50 366.55-26.50L366.55-26.50L366.55-26.50Q369.80-26.50 371.73-25.20L371.73-25.20L371.73-25.20Q373.65-23.90 373.65-21.70L373.65-21.70L373.65-21.70Q373.65-19.50 372.33-18.25L372.33-18.25L372.33-18.25Q371-17 368.60-17L368.60-17L368.60-17Q366.95-17 366.15-17.55Z" fill="none" stroke="#baeaff" stroke-width="1.5"></path></g></g><style>text {
  font-size: 64px;
  font-family: Arial Black;
  dominant-baseline: central;
  text-anchor: middle;
}</style></svg>