<svg id="visual" viewBox="0 0 1920 1080" width="1920" height="1080" xmlns="http://www.w3.org/2000/svg" xmlns:xlink="http://www.w3.org/1999/xlink" version="1.1"><path d="M0 368L29.2 368C58.3 368 116.7 368 174.8 364.5C233 361 291 354 349.2 339.7C407.3 325.3 465.7 303.7 523.8 276.7C582 249.7 640 217.3 698.2 228.2C756.3 239 814.7 293 872.8 329C931 365 989 383 1047.2 392C1105.3 401 1163.7 401 1221.8 375.7C1280 350.3 1338 299.7 1396.2 299.7C1454.3 299.7 1512.7 350.3 1570.8 379.2C1629 408 1687 415 1745.2 389.7C1803.3 364.3 1861.7 306.7 1890.8 277.8L1920 249L1920 0L1890.8 0C1861.7 0 1803.3 0 1745.2 0C1687 0 1629 0 1570.8 0C1512.7 0 1454.3 0 1396.2 0C1338 0 1280 0 1221.8 0C1163.7 0 1105.3 0 1047.2 0C989 0 931 0 872.8 0C814.7 0 756.3 0 698.2 0C640 0 582 0 523.8 0C465.7 0 407.3 0 349.2 0C291 0 233 0 174.8 0C116.7 0 58.3 0 29.2 0L0 0Z" fill="#6198ff"></path><path d="M0 660L29.2 629.3C58.3 598.7 116.7 537.3 174.8 512.2C233 487 291 498 349.2 480C407.3 462 465.7 415 523.8 386.2C582 357.3 640 346.7 698.2 379.2C756.3 411.7 814.7 487.3 872.8 516.2C931 545 989 527 1047.2 523.3C1105.3 519.7 1163.7 530.3 1221.8 514C1280 497.7 1338 454.3 1396.2 468.7C1454.3 483 1512.7 555 1570.8 585.7C1629 616.3 1687 605.7 1745.2 564.3C1803.3 523 1861.7 451 1890.8 415L1920 379L1920 247L1890.8 275.8C1861.7 304.7 1803.3 362.3 1745.2 387.7C1687 413 1629 406 1570.8 377.2C1512.7 348.3 1454.3 297.7 1396.2 297.7C1338 297.7 1280 348.3 1221.8 373.7C1163.7 399 1105.3 399 1047.2 390C989 381 931 363 872.8 327C814.7 291 756.3 237 698.2 226.2C640 215.3 582 247.7 523.8 274.7C465.7 301.7 407.3 323.3 349.2 337.7C291 352 233 359 174.8 362.5C116.7 366 58.3 366 29.2 366L0 366Z" fill="#3c80ff"></path><path d="M0 789L29.2 754.8C58.3 720.7 116.7 652.3 174.8 621.8C233 591.3 291 598.7 349.2 589.7C407.3 580.7 465.7 555.3 523.8 537.3C582 519.3 640 508.7 698.2 542.8C756.3 577 814.7 656 872.8 672.2C931 688.3 989 641.7 1047.2 631C1105.3 620.3 1163.7 645.7 1221.8 629.5C1280 613.3 1338 555.7 1396.2 575.3C1454.3 595 1512.7 692 1570.8 722.5C1629 753 1687 717 1745.2 673.8C1803.3 630.7 1861.7 580.3 1890.8 555.2L1920 530L1920 377L1890.8 413C1861.7 449 1803.3 521 1745.2 562.3C1687 603.7 1629 614.3 1570.8 583.7C1512.7 553 1454.3 481 1396.2 466.7C1338 452.3 1280 495.7 1221.8 512C1163.7 528.3 1105.3 517.7 1047.2 521.3C989 525 931 543 872.8 514.2C814.7 485.3 756.3 409.7 698.2 377.2C640 344.7 582 355.3 523.8 384.2C465.7 413 407.3 460 349.2 478C291 496 233 485 174.8 510.2C116.7 535.3 58.3 596.7 29.2 627.3L0 658Z" fill="#0066ff"></path><path d="M0 962L29.2 949.5C58.3 937 116.7 912 174.8 899.5C233 887 291 887 349.2 890.5C407.3 894 465.7 901 523.8 902.7C582 904.3 640 900.7 698.2 906.2C756.3 911.7 814.7 926.3 872.8 944.3C931 962.3 989 983.7 1047.2 994.3C1105.3 1005 1163.7 1005 1221.8 988.8C1280 972.7 1338 940.3 1396.2 927.8C1454.3 915.3 1512.7 922.7 1570.8 919.2C1629 915.7 1687 901.3 1745.2 904.8C1803.3 908.3 1861.7 929.7 1890.8 940.3L1920 951L1920 528L1890.8 553.2C1861.7 578.3 1803.3 628.7 1745.2 671.8C1687 715 1629 751 1570.8 720.5C1512.7 690 1454.3 593 1396.2 573.3C1338 553.7 1280 611.3 1221.8 627.5C1163.7 643.7 1105.3 618.3 1047.2 629C989 639.7 931 686.3 872.8 670.2C814.7 654 756.3 575 698.2 540.8C640 506.7 582 517.3 523.8 535.3C465.7 553.3 407.3 578.7 349.2 587.7C291 596.7 233 589.3 174.8 619.8C116.7 650.3 58.3 718.7 29.2 752.8L0 787Z" fill="#0059dd"></path><path d="M0 1081L29.2 1081C58.3 1081 116.7 1081 174.8 1081C233 1081 291 1081 349.2 1081C407.3 1081 465.7 1081 523.8 1081C582 1081 640 1081 698.2 1081C756.3 1081 814.7 1081 872.8 1081C931 1081 989 1081 1047.2 1081C1105.3 1081 1163.7 1081 1221.8 1081C1280 1081 1338 1081 1396.2 1081C1454.3 1081 1512.7 1081 1570.8 1081C1629 1081 1687 1081 1745.2 1081C1803.3 1081 1861.7 1081 1890.8 1081L1920 1081L1920 949L1890.8 938.3C1861.7 927.7 1803.3 906.3 1745.2 902.8C1687 899.3 1629 913.7 1570.8 917.2C1512.7 920.7 1454.3 913.3 1396.2 925.8C1338 938.3 1280 970.7 1221.8 986.8C1163.7 1003 1105.3 1003 1047.2 992.3C989 981.7 931 960.3 872.8 942.3C814.7 924.3 756.3 909.7 698.2 904.2C640 898.7 582 902.3 523.8 900.7C465.7 899 407.3 892 349.2 888.5C291 885 233 885 174.8 897.5C116.7 910 58.3 935 29.2 947.5L0 960Z" fill="#004cbb"></path></svg>